<svg height="128" width="128" xmlns="http://www.w3.org/2000/svg"><linearGradient id="a" gradientUnits="userSpaceOnUse" x1="175.322" x2="287.322" y1="72.644" y2="72.644"><stop offset="0" stop-color="#5e5c64"/><stop offset=".036" stop-color="#9a9996"/><stop offset=".071" stop-color="#5e5c64"/><stop offset=".929" stop-color="#5e5c64"/><stop offset=".964" stop-color="#9a9996"/><stop offset="1" stop-color="#5e5c64"/></linearGradient><g transform="translate(-167.322 31.356)"><g fill="#5e5c64" stroke-width="4"><rect height="24" ry="4" width="112" x="175.322" y="-7.356"/><rect height="24" ry="4" width="112" x="175.322" y="16.644"/><rect height="24" ry="4.236" width="112" x="175.322" y="40.644"/></g><rect fill="url(#a)" height="20" ry="4" width="112" x="175.322" y="60.644"/><g fill="#9a9996" stroke-width="4"><rect height="20" ry="4" width="112" x="175.322" y="-19.356"/><rect height="20" ry="4" width="112" x="175.322" y="4.644"/><rect height="20" ry="4" width="112" x="175.322" y="28.644"/><rect height="20" ry="4" width="112" x="175.322" y="52.644"/></g><path d="M223.322-15.356h60v12h-60zm0 24h60v12h-60zm0 24h60v12h-60zm0 24h60v12h-60z" fill="#3d3846"/><g fill="#5e5c64" transform="matrix(4 0 0 4 167.322 -31.356)"><path d="M14 5h15v2H14zm0 6h15v2H14zm0 6h15v2H14zm0 6h15v2H14z"/><rect height="2" ry=".5" width="1" x="4" y="4"/><rect height="2" ry=".5" width="1" x="6" y="4"/><rect height="2" ry=".5" width="1" x="4" y="10"/><rect height="2" ry=".5" width="1" x="6" y="10"/><rect height="2" ry=".5" width="1" x="4" y="16"/><rect height="2" ry=".5" width="1" x="6" y="16"/><rect height="2" ry=".5" width="1" x="4" y="22"/><rect height="2" ry=".5" width="1" x="6" y="22"/></g><g stroke-width="4" transform="translate(167.322 -31.356)"><rect fill="#e01b24" height="4" ry="2" width="4" x="24" y="44"/><rect fill="#e01b24" height="4" ry="2" width="4" x="16" y="68"/><g fill="#f6d32d"><rect height="4" ry="2" width="4" x="16" y="20"/><rect height="4" ry="2" width="4" x="24" y="68"/><rect height="4" ry="2" width="4" x="16" y="92"/></g><g fill="#33d17a"><rect height="4" ry="2" width="4" x="24" y="20"/><rect height="4" ry="2" width="4" x="16" y="44"/><rect height="4" ry="2" width="4" x="24" y="92"/></g><path d="M60 44h4v8h-4zm8 0h4v8h-4zm8 0h4v8h-4zm8 0h4v8h-4zm8 0h4v8h-4zm8 0h4v8h-4zm8 0h4v8h-4zM60 20h4v8h-4zm8 0h4v8h-4zm8 0h4v8h-4zm8 0h4v8h-4zm8 0h4v8h-4zm8 0h4v8h-4zm8 0h4v8h-4zM60 68h4v8h-4zm8 0h4v8h-4zm8 0h4v8h-4zm8 0h4v8h-4zm8 0h4v8h-4zm8 0h4v8h-4zm8 0h4v8h-4zM60 92h4v8h-4zm8 0h4v8h-4zm8 0h4v8h-4zm8 0h4v8h-4zm8 0h4v8h-4zm8 0h4v8h-4zm8 0h4v8h-4z" fill="#3d3846"/><path d="M60 40h4v4h-4zm8 0h4v4h-4zm8 0h4v4h-4zm8 0h4v4h-4zm8 0h4v4h-4zm8 0h4v4h-4zm8 0h4v4h-4zM60 16h4v4h-4zm8 0h4v4h-4zm8 0h4v4h-4zm8 0h4v4h-4zm8 0h4v4h-4zm8 0h4v4h-4zm8 0h4v4h-4zM60 64h4v4h-4zm8 0h4v4h-4zm8 0h4v4h-4zm8 0h4v4h-4zm8 0h4v4h-4zm8 0h4v4h-4zm8 0h4v4h-4zM60 88h4v4h-4zm8 0h4v4h-4zm8 0h4v4h-4zm8 0h4v4h-4zm8 0h4v4h-4zm8 0h4v4h-4zm8 0h4v4h-4z" fill="#241f31"/></g></g><path d="M72 44h4v52h-4zm24 28h4v24h-4z" fill="#f6d32d"/><path d="M56 24h4v24h-4zm8 20h4v28h-4zm24-20h4v24h-4zm16 24h4v24h-4z" fill="#1c71d8"/><path d="M80 24h4v48h-4zm24 0h4v24h-4z" fill="#a347ba"/><path d="M96 24h4v24h-4z" fill="#33d17a"/></svg>